<?xml version="1.0" standalone="no"?>
<!DOCTYPE svg PUBLIC "-//W3C//DTD SVG 20010904//EN"
 "http://www.w3.org/TR/2001/REC-SVG-20010904/DTD/svg10.dtd">
<svg version="1.0" xmlns="http://www.w3.org/2000/svg"
 width="300.000000pt" height="300.000000pt" viewBox="0 0 300.000000 300.000000"
 preserveAspectRatio="xMidYMid meet">

<g transform="translate(0.000000,300.000000) scale(0.100000,-0.100000)"
fill="#000000" stroke="none">
<path d="M1415 2707 c-22 -8 -53 -21 -70 -30 -16 -8 -247 -233 -512 -499 -525
-526 -523 -524 -525 -636 -1 -69 15 -123 53 -177 50 -73 950 -961 999 -986 37
-19 61 -24 130 -24 75 0 91 3 136 28 69 38 992 964 1019 1022 11 23 21 71 23
113 8 134 29 108 -521 659 -529 530 -528 530 -641 539 -28 2 -69 -2 -91 -9z
m138 -148 c31 -16 945 -928 963 -961 18 -35 18 -91 0 -126 -18 -33 -942 -955
-973 -971 -28 -14 -78 -14 -106 0 -31 16 -955 938 -973 971 -18 35 -18 91 0
126 16 30 930 944 961 961 26 14 100 14 128 0z"/>
<path d="M1209 2211 c-64 -64 -20 -171 70 -171 30 0 41 -4 41 -15 0 -8 5 -15
10 -15 6 0 10 9 10 20 0 11 9 34 20 52 46 75 4 158 -80 158 -33 0 -48 -6 -71
-29z"/>
<path d="M1525 2029 c-44 -5 -118 -20 -165 -35 -110 -34 -277 -121 -284 -148
-7 -28 -5 -183 3 -221 5 -25 11 -30 36 -30 l30 0 10 102 c6 56 13 105 17 109
4 4 14 1 23 -6 10 -8 15 -9 15 -1 0 6 5 11 10 11 6 0 10 -9 10 -20 0 -11 4
-20 8 -20 5 0 7 13 4 29 -3 25 1 32 27 46 30 15 32 15 57 -10 29 -29 104 -183
104 -214 0 -46 -43 -200 -90 -324 -28 -73 -49 -143 -48 -157 4 -31 49 -50 72
-30 24 19 140 266 177 376 32 98 33 99 45 69 6 -16 31 -106 55 -200 23 -93 47
-176 52 -182 13 -18 42 -16 57 2 10 12 6 63 -18 262 -33 267 -45 315 -111 424
-43 72 -41 79 27 79 48 0 86 -16 76 -32 -4 -6 1 -8 15 -3 17 5 21 2 21 -14 0
-12 5 -21 10 -21 6 0 10 9 10 19 0 19 2 19 45 4 50 -16 75 -7 75 27 0 25 -12
32 -124 79 -104 43 -114 44 -251 30z"/>
<path d="M1610 1008 c0 -59 3 -75 15 -75 9 0 11 4 6 11 -5 6 -10 38 -10 70 0
32 -2 60 -5 64 -3 3 -6 -28 -6 -70z"/>
<path d="M1238 1021 l33 -6 -31 -42 c-18 -24 -28 -43 -23 -42 4 0 23 22 41 50
l32 49 -42 -1 c-41 -2 -42 -2 -10 -8z"/>
<path d="M1321 1016 c-16 -20 -10 -78 9 -84 13 -4 13 -3 2 11 -20 24 -11 71
14 75 33 5 50 -23 36 -60 -9 -25 -9 -28 4 -18 30 26 9 90 -30 90 -13 0 -29 -6
-35 -14z"/>
<path d="M1430 980 c0 -29 2 -51 4 -49 8 8 10 88 3 95 -4 4 -7 -17 -7 -46z"/>
<path d="M1470 1023 c22 -9 29 -24 31 -63 2 -32 2 -31 8 10 5 36 10 45 26 45
16 0 21 -9 26 -45 l6 -45 1 48 c2 52 -15 70 -49 49 -11 -7 -20 -8 -24 -2 -3 6
-14 10 -23 9 -14 0 -14 -2 -2 -6z"/>
<path d="M1657 1023 c29 -5 41 -48 23 -77 -12 -19 -12 -20 3 -7 20 16 22 62 5
79 -7 7 -21 11 -32 11 -19 -2 -19 -2 1 -6z"/>
<path d="M1733 980 c0 -30 2 -43 4 -27 2 15 2 39 0 55 -2 15 -4 2 -4 -28z"/>
<path d="M1786 1014 c-9 -8 -16 -24 -16 -35 0 -21 34 -59 53 -59 6 0 3 6 -8
12 -34 19 -41 44 -22 76 17 27 53 12 48 -20 0 -5 4 -8 9 -8 13 0 13 6 0 31
-13 23 -43 25 -64 3z"/>
</g>
</svg>
