<?xml version="1.0" standalone="no"?>
<!DOCTYPE svg PUBLIC "-//W3C//DTD SVG 20010904//EN"
 "http://www.w3.org/TR/2001/REC-SVG-20010904/DTD/svg10.dtd">
<svg version="1.0" xmlns="http://www.w3.org/2000/svg"
 width="300.000000pt" height="300.000000pt" viewBox="0 0 300.000000 300.000000"
 preserveAspectRatio="xMidYMid meet">

<g transform="translate(0.000000,300.000000) scale(0.100000,-0.100000)"
fill="#000000" stroke="none">
<path d="M1960 2488 c0 -16 -72 -62 -245 -159 -71 -40 -163 -94 -203 -121 -75
-51 -75 -50 -44 -97 12 -17 78 27 272 179 163 128 223 170 244 170 19 0 21 11
4 28 -16 16 -28 15 -28 0z"/>
<path d="M2207 2164 c-16 -16 -6 -44 18 -50 33 -8 37 -4 22 26 -13 25 -29 35
-40 24z"/>
<path d="M2330 2025 c0 -9 9 -15 21 -15 18 0 19 2 9 15 -7 8 -16 15 -21 15 -5
0 -9 -7 -9 -15z"/>
<path d="M2175 2020 c-11 -17 5 -30 37 -30 30 0 31 0 13 20 -20 22 -40 26 -50
10z"/>
<path d="M659 1961 c-60 -60 -24 -164 62 -177 29 -5 39 -11 39 -25 0 -11 5
-19 10 -19 6 0 10 12 10 26 0 14 9 33 20 42 27 22 39 69 28 109 -19 74 -114
98 -169 44z"/>
<path d="M2212 1918 c-7 -7 -12 -17 -12 -24 0 -7 34 -91 76 -188 l77 -176 -36
-168 c-23 -106 -37 -204 -40 -270 -2 -56 -6 -105 -9 -107 -3 -3 -59 -8 -124
-12 -66 -3 -125 -10 -131 -16 -21 -16 -15 -55 10 -71 24 -15 311 -42 339 -31
21 8 34 43 49 133 19 113 23 115 115 67 144 -75 134 -63 135 -157 1 -46 4
-108 7 -138 6 -48 10 -56 34 -64 21 -8 32 -6 46 8 17 15 20 38 27 176 4 87 3
165 -2 173 -4 9 -47 45 -95 82 -69 53 -88 72 -88 92 0 38 102 261 153 334 87
124 167 260 167 284 0 24 -21 38 -43 29 -8 -3 -66 -72 -131 -153 -64 -82 -123
-152 -132 -155 -9 -3 -35 -6 -58 -6 -72 0 -98 27 -192 200 -96 174 -110 190
-142 158z"/>
<path d="M1388 1845 c-35 -19 -48 -44 -48 -90 0 -66 56 -114 119 -102 20 4 31
2 35 -8 10 -26 24 -16 30 23 19 107 19 128 -6 156 -29 34 -90 44 -130 21z"/>
<path d="M2503 1796 c-39 -18 -56 -48 -56 -100 0 -87 111 -130 174 -67 80 80
-14 212 -118 167z"/>
<path d="M404 1762 c-17 -10 -164 -192 -164 -202 0 -23 14 -40 34 -40 14 0 49
28 96 75 41 41 82 75 92 75 10 0 18 -3 18 -6 0 -3 -38 -74 -84 -158 l-84 -152
12 -128 12 -127 -68 -122 c-37 -67 -68 -129 -68 -138 0 -9 9 -24 20 -34 36
-33 60 -14 153 123 86 127 87 129 87 190 0 34 3 62 8 62 4 0 22 -23 40 -50 23
-35 32 -61 32 -90 0 -22 5 -40 10 -40 6 0 10 5 10 11 0 5 5 7 10 4 6 -3 10
-16 10 -28 0 -18 2 -19 11 -7 8 11 12 12 16 2 2 -6 25 -39 49 -72 37 -50 49
-60 74 -60 22 0 33 6 41 24 13 27 15 22 -126 276 -52 95 -95 178 -95 183 0 22
32 46 49 37 9 -6 42 -21 74 -34 52 -23 57 -28 57 -55 0 -17 5 -31 10 -31 6 0
10 5 10 10 0 21 20 9 21 -12 1 -18 3 -16 8 7 5 26 10 30 37 27 34 -4 58 17 48
41 -3 9 -44 37 -91 63 l-85 46 6 42 c24 152 16 212 -33 265 -29 31 -29 31
-138 31 -59 0 -113 -4 -119 -8z"/>
<path d="M1472 1600 c-162 -16 -186 -20 -207 -40 -32 -30 -80 -124 -154 -300
-56 -133 -68 -154 -140 -236 -95 -109 -105 -127 -91 -154 23 -43 59 -25 170
83 58 56 113 113 121 126 14 22 19 24 45 14 16 -7 49 -15 74 -19 73 -11 96
-28 118 -86 11 -29 23 -69 27 -88 3 -19 9 -42 11 -52 6 -21 49 -31 74 -18 25
14 27 81 4 180 -25 113 -74 165 -181 196 -34 10 -53 21 -53 31 0 15 60 134 83
164 11 15 19 15 92 0 59 -13 81 -22 83 -35 3 -13 7 -15 18 -5 11 9 14 7 14 -9
0 -12 5 -24 10 -27 6 -4 10 5 10 21 0 26 1 27 45 21 33 -5 48 -3 60 9 31 31 8
56 -70 76 -33 9 -79 21 -102 28 -24 6 -43 14 -43 18 0 4 52 17 117 27 124 21
150 36 127 73 -15 23 -44 23 -262 2z"/>
</g>
</svg>
