<?xml version="1.0" standalone="no"?>
<!DOCTYPE svg PUBLIC "-//W3C//DTD SVG 20010904//EN"
 "http://www.w3.org/TR/2001/REC-SVG-20010904/DTD/svg10.dtd">
<svg version="1.0" xmlns="http://www.w3.org/2000/svg"
 width="300.000000pt" height="300.000000pt" viewBox="0 0 300.000000 300.000000"
 preserveAspectRatio="xMidYMid meet">

<g transform="translate(0.000000,300.000000) scale(0.100000,-0.100000)"
fill="#000000" stroke="none">
<path d="M947 2198 c-13 -18 -54 -78 -92 -133 -37 -55 -108 -144 -156 -197
-49 -54 -91 -109 -95 -124 -4 -14 -1 -43 5 -64 15 -50 293 -513 397 -660 45
-63 121 -185 169 -270 105 -184 117 -200 161 -200 33 0 74 36 74 65 0 15 -138
322 -199 444 -23 45 -39 81 -37 81 2 0 47 11 99 25 l95 26 164 -86 c91 -47
172 -85 180 -85 8 0 27 9 42 21 31 25 36 77 9 101 -10 9 -106 62 -213 118
l-195 103 -125 -12 c-69 -7 -133 -13 -143 -14 -14 -2 -38 33 -98 141 -43 78
-79 146 -79 151 0 4 18 13 41 20 35 11 43 10 58 -3 23 -21 31 -20 31 4 0 26
14 25 32 -2 9 -13 19 -18 27 -14 7 5 9 12 3 19 -26 36 -11 62 98 173 61 61
110 119 110 128 0 35 -20 56 -53 56 -26 -1 -54 -19 -147 -99 -110 -95 -118
-100 -198 -121 -46 -12 -85 -20 -88 -17 -3 3 14 32 38 66 31 43 49 60 63 58
14 -1 19 3 17 15 -4 26 16 31 30 8 12 -19 38 -28 38 -13 0 3 -12 22 -27 41
l-27 35 28 51 c84 154 80 144 62 171 -25 37 -68 34 -99 -7z"/>
<path d="M151 2092 c-94 -47 -108 -166 -28 -240 71 -67 215 -22 233 73 4 25
12 35 28 37 28 4 27 31 -1 38 -12 3 -32 21 -45 40 -27 40 -79 70 -123 70 -16
0 -45 -8 -64 -18z"/>
<path d="M420 2090 c0 -23 25 -27 33 -6 7 16 -1 26 -20 26 -7 0 -13 -9 -13
-20z"/>
<path d="M557 2084 c-9 -10 2 -24 19 -24 8 0 14 7 14 15 0 15 -21 21 -33 9z"/>
<path d="M2685 2079 c-69 -20 -113 -103 -93 -176 36 -132 220 -143 274 -16 19
44 18 69 -7 119 -15 31 -32 48 -63 63 -45 23 -64 24 -111 10z"/>
<path d="M675 1931 c-7 -12 12 -24 25 -16 11 7 4 25 -10 25 -5 0 -11 -4 -15
-9z"/>
<path d="M403 1884 c-3 -8 1 -23 10 -31 21 -21 47 -9 47 22 0 20 -5 25 -25 25
-14 0 -28 -7 -32 -16z"/>
<path d="M1487 1843 c-3 -4 -12 -25 -20 -45 l-15 -37 106 -44 c59 -25 211 -77
337 -117 288 -91 272 -84 267 -124 -6 -52 13 -60 159 -64 71 -3 129 -5 129 -6
0 -2 -16 -42 -35 -91 -36 -92 -49 -114 -282 -491 -151 -245 -163 -274 -123
-314 24 -24 57 -26 86 -5 12 8 92 109 179 226 176 234 173 232 174 97 1 -42 5
-88 10 -101 10 -26 324 -262 373 -281 40 -15 82 17 86 67 3 34 -1 39 -143 163
l-146 129 7 145 7 145 99 250 c55 138 101 266 101 286 3 71 -50 118 -141 126
l-59 5 -228 -117 -228 -117 -266 131 c-146 72 -295 141 -331 155 -36 13 -72
27 -81 31 -10 3 -19 3 -22 -2z m1023 -283 c-8 -15 -21 -20 -53 -20 -38 0 -40
1 -22 14 19 13 46 22 73 25 10 1 10 -4 2 -19z"/>
<path d="M1795 1220 c-3 -5 -1 -10 4 -10 6 0 11 5 11 10 0 6 -2 10 -4 10 -3 0
-8 -4 -11 -10z"/>
<path d="M1910 1110 c0 -5 5 -10 10 -10 6 0 10 5 10 10 0 6 -4 10 -10 10 -5 0
-10 -4 -10 -10z"/>
</g>
</svg>
