<?xml version="1.0" standalone="no"?>
<!DOCTYPE svg PUBLIC "-//W3C//DTD SVG 20010904//EN"
 "http://www.w3.org/TR/2001/REC-SVG-20010904/DTD/svg10.dtd">
<svg version="1.0" xmlns="http://www.w3.org/2000/svg"
 width="300.000000pt" height="300.000000pt" viewBox="0 0 300.000000 300.000000"
 preserveAspectRatio="xMidYMid meet">

<g transform="translate(0.000000,300.000000) scale(0.100000,-0.100000)"
fill="#000000" stroke="none">
<path d="M1619 1947 c-78 -41 -114 -150 -74 -226 36 -70 126 -113 194 -93 53
16 61 15 61 -8 0 -13 7 -20 20 -20 17 0 20 7 20 45 0 26 7 60 16 77 23 45 15
134 -16 177 -27 39 -90 70 -141 71 -20 0 -56 -10 -80 -23z"/>
<path d="M2150 1843 c-66 -34 -102 -78 -139 -169 -34 -86 -61 -105 -175 -129
-82 -17 -87 -17 -105 -1 -29 26 -90 31 -156 11 -105 -30 -335 -155 -593 -322
-58 -37 -83 -76 -64 -95 19 -19 14 -28 -18 -28 -47 0 -100 -26 -100 -48 0 -34
70 -40 252 -21 123 12 191 33 365 110 72 33 133 59 136 59 3 0 4 -30 4 -66 -2
-61 0 -68 24 -86 27 -20 27 -20 230 -1 188 19 204 22 221 43 13 16 17 32 13
49 -12 49 -19 51 -166 51 -156 0 -148 -5 -128 78 16 63 22 70 88 88 31 8 73
22 94 30 49 18 47 19 47 -20 0 -39 18 -57 32 -32 15 27 28 18 28 -19 0 -24 5
-35 15 -35 12 0 15 16 15 85 0 73 3 89 24 120 14 20 36 71 51 115 19 56 35 87
56 105 17 14 35 25 40 25 20 0 49 41 49 69 0 33 -30 61 -65 61 -12 0 -46 -12
-75 -27z"/>
<path d="M761 1156 c-15 -18 -3 -46 20 -46 25 0 35 26 19 45 -15 19 -24 19
-39 1z"/>
<path d="M705 1061 c-3 -5 -1 -12 5 -16 12 -7 30 2 30 16 0 12 -27 12 -35 0z"/>
</g>
</svg>
