<?xml version="1.0" standalone="no"?>
<!DOCTYPE svg PUBLIC "-//W3C//DTD SVG 20010904//EN"
 "http://www.w3.org/TR/2001/REC-SVG-20010904/DTD/svg10.dtd">
<svg version="1.0" xmlns="http://www.w3.org/2000/svg"
 width="300.000000pt" height="300.000000pt" viewBox="0 0 300.000000 300.000000"
 preserveAspectRatio="xMidYMid meet">

<g transform="translate(0.000000,300.000000) scale(0.100000,-0.100000)"
fill="#000000" stroke="none">
<path d="M1385 2736 c-30 -13 -70 -45 -99 -77 -59 -66 -1117 -1894 -1147
-1981 -23 -68 -24 -118 -5 -182 30 -98 115 -165 235 -186 47 -8 382 -10 1166
-8 l1100 3 56 23 c68 27 125 80 152 141 25 56 26 157 3 220 -28 76 -1098 1920
-1144 1972 -86 97 -209 126 -317 75z m155 -161 c43 -22 -40 117 773 -1292 185
-320 345 -600 357 -623 24 -47 29 -113 9 -136 -7 -8 -26 -23 -43 -32 -29 -16
-119 -17 -1141 -17 -1213 0 -1144 -3 -1188 57 -18 24 -19 33 -11 70 6 26 185
346 446 798 240 415 484 838 542 940 139 242 176 276 256 235z"/>
<path d="M1524 2086 c-25 -25 -34 -43 -34 -67 0 -51 32 -96 79 -110 27 -8 41
-18 43 -32 5 -34 28 -32 28 2 0 21 7 35 24 47 30 19 50 74 41 114 -10 44 -58
80 -107 80 -32 0 -47 -7 -74 -34z"/>
<path d="M1470 1840 c0 -5 10 -10 23 -10 18 0 19 2 7 10 -19 13 -30 13 -30 0z"/>
<path d="M1315 1788 c-25 -28 -58 -69 -73 -90 -15 -20 -31 -38 -37 -38 -5 1
-23 15 -40 32 -53 54 -120 72 -163 42 -45 -31 -16 -86 37 -69 14 4 33 -10 75
-55 31 -34 56 -70 56 -82 0 -17 2 -18 15 -8 13 11 15 8 15 -14 0 -14 5 -26 10
-26 6 0 10 11 10 25 0 16 15 39 46 67 25 24 49 44 53 45 3 2 6 -63 7 -145 1
-97 8 -191 22 -277 22 -135 92 -396 113 -421 16 -19 69 -14 83 8 8 13 4 49
-13 140 -33 178 -42 252 -39 306 l3 47 18 -80 c19 -81 121 -369 140 -392 12
-16 59 -17 75 -1 19 19 14 54 -27 203 -49 176 -77 393 -66 518 4 48 10 87 13
87 4 -1 23 -14 42 -30 19 -17 46 -30 61 -30 15 0 30 -6 33 -12 5 -10 7 -10 12
0 10 21 23 13 26 -15 5 -48 23 -26 26 32 2 45 8 58 29 75 14 11 38 20 54 20
35 0 63 35 48 62 -7 14 -21 18 -62 18 -43 0 -60 -6 -104 -36 -62 -42 -63 -42
-123 46 -21 30 -48 64 -60 75 -22 20 -22 20 -39 -1 -9 -11 -37 -44 -62 -73
l-46 -52 -52 75 c-29 42 -56 76 -61 76 -4 0 -29 -23 -55 -52z m181 -159 c10
-17 -13 -36 -27 -22 -12 12 -4 33 11 33 5 0 12 -5 16 -11z m-6 -84 c0 -8 -7
-15 -15 -15 -8 0 -15 7 -15 15 0 8 7 15 15 15 8 0 15 -7 15 -15z"/>
<path d="M1470 1781 c0 -16 3 -37 6 -45 10 -27 34 1 34 40 0 27 -4 34 -20 34
-15 0 -20 -7 -20 -29z"/>
<path d="M1552 670 l-2 -86 35 -2 c27 -2 38 3 51 22 20 31 7 79 -22 84 -17 3
-17 2 -3 -10 22 -18 28 -39 18 -66 -7 -18 -15 -23 -36 -20 -24 3 -28 8 -31 38
-3 24 2 38 15 48 15 13 15 14 1 9 -13 -5 -18 1 -21 31 -2 20 -4 -1 -5 -48z"/>
<path d="M1148 683 l33 -4 -36 -50 -37 -49 49 2 c44 1 45 2 10 5 l-38 4 36 50
37 49 -44 -2 c-37 -1 -38 -2 -10 -5z"/>
<path d="M1231 676 c-17 -20 -10 -77 10 -89 26 -16 68 0 75 29 7 28 -9 74 -26
74 -6 0 -3 -11 6 -25 30 -46 -17 -100 -54 -63 -17 17 -15 54 4 72 8 9 11 16 6
16 -5 0 -15 -6 -21 -14z"/>
<path d="M1352 630 c1 -47 2 -49 5 -15 3 22 11 47 18 55 12 14 12 16 -5 16
-18 0 -20 -7 -18 -56z"/>
<path d="M1410 680 c9 -6 15 -25 15 -54 0 -25 3 -46 8 -46 4 0 7 22 7 49 0 35
-4 51 -16 55 -23 9 -31 7 -14 -4z"/>
<path d="M1485 673 c12 -11 16 -28 13 -55 -2 -21 0 -38 4 -38 12 0 10 68 -2
91 -6 10 -15 19 -21 19 -6 0 -3 -7 6 -17z"/>
<path d="M1683 635 c0 -33 2 -45 4 -27 2 18 2 45 0 60 -2 15 -4 0 -4 -33z"/>
<path d="M1742 678 c-7 -7 -12 -26 -12 -43 0 -40 16 -55 55 -54 30 2 30 2 -5
8 -31 5 -35 10 -38 39 -2 18 2 40 9 48 14 17 8 19 -9 2z"/>
<path d="M1790 683 c5 -2 10 -13 10 -24 0 -10 4 -19 10 -19 13 0 -4 43 -19 46
-6 1 -7 0 -1 -3z"/>
</g>
</svg>
