<?xml version="1.0" standalone="no"?>
<!DOCTYPE svg PUBLIC "-//W3C//DTD SVG 20010904//EN"
 "http://www.w3.org/TR/2001/REC-SVG-20010904/DTD/svg10.dtd">
<svg version="1.0" xmlns="http://www.w3.org/2000/svg"
 width="300.000000pt" height="300.000000pt" viewBox="0 0 300.000000 300.000000"
 preserveAspectRatio="xMidYMid meet">

<g transform="translate(0.000000,300.000000) scale(0.100000,-0.100000)"
fill="#000000" stroke="none">
<path d="M487 1790 c-63 -11 -95 -33 -113 -77 -20 -47 -12 -78 53 -205 30 -58
52 -111 49 -117 -4 -6 -31 -11 -59 -11 -169 -1 -258 -47 -201 -104 13 -13 45
-16 197 -16 203 0 217 4 237 64 13 41 4 82 -42 194 -17 40 -28 75 -25 78 2 2
23 2 46 -2 35 -6 41 -10 41 -30 0 -13 5 -24 10 -24 6 0 10 5 10 10 0 6 5 10
10 10 6 0 10 -11 10 -25 0 -14 5 -25 10 -25 6 0 10 16 10 35 0 36 0 36 38 30
65 -11 66 -12 48 -40 -22 -33 -20 -68 4 -90 14 -13 20 -31 20 -62 0 -40 13
-59 22 -31 6 18 28 -1 28 -25 1 -20 2 -21 14 -5 11 16 17 13 56 -27 44 -45 75
-56 98 -33 23 23 11 52 -59 140 -62 79 -69 92 -57 106 8 10 31 36 51 60 31 35
37 49 37 88 0 55 -12 79 -48 98 -50 26 -407 52 -495 36z"/>
<path d="M2495 1789 c-66 -10 -309 -75 -338 -91 -10 -5 -47 -53 -81 -107 -53
-81 -81 -112 -165 -181 -83 -70 -101 -89 -101 -112 0 -29 31 -54 55 -44 7 2
45 27 84 55 39 28 73 51 76 51 3 0 5 -9 5 -20 0 -11 5 -20 10 -20 6 0 10 13
10 29 0 21 8 36 28 49 15 11 41 38 57 61 29 39 32 41 88 41 54 0 57 -1 57 -25
0 -14 5 -25 10 -25 6 0 10 5 10 10 0 6 5 10 10 10 6 0 10 -11 10 -25 0 -14 5
-25 10 -25 6 0 10 24 10 53 l0 52 63 23 c34 13 69 25 78 28 14 5 10 -11 -17
-78 -51 -126 -44 -193 24 -228 29 -15 349 -3 384 14 29 15 36 67 12 87 -12 10
-56 16 -145 19 -70 3 -131 8 -134 11 -3 4 15 42 40 87 76 135 91 198 58 252
-29 50 -98 66 -208 49z"/>
<path d="M1821 1704 c-37 -31 -53 -81 -40 -128 10 -36 60 -86 84 -86 8 0 19
-9 25 -21 l12 -21 21 21 c12 11 39 36 60 55 34 31 37 39 37 86 0 46 -4 56 -34
86 -30 30 -40 34 -84 34 -40 0 -57 -6 -81 -26z"/>
<path d="M1103 1630 c-41 -25 -53 -48 -53 -104 0 -36 6 -52 30 -79 22 -25 30
-45 30 -71 0 -25 4 -36 15 -36 10 0 15 10 15 29 0 26 4 29 45 35 110 17 149
149 64 220 -38 32 -99 35 -146 6z"/>
<path d="M1415 1503 c-49 -25 -84 -48 -77 -50 6 -3 12 -11 12 -18 0 -8 6 -20
13 -27 8 -7 16 -19 18 -26 3 -8 34 8 87 43 65 44 82 60 82 80 0 14 -8 29 -19
35 -24 12 -11 17 -116 -37z"/>
<path d="M1690 1465 c0 -8 7 -15 15 -15 8 0 15 7 15 15 0 8 -7 15 -15 15 -8 0
-15 -7 -15 -15z"/>
<path d="M1552 1361 c-104 -6 -115 -8 -133 -30 -21 -26 -18 -58 9 -78 10 -8
49 -13 108 -13 50 0 105 -3 121 -6 l29 -6 0 71 c0 44 -4 70 -11 69 -5 -1 -61
-4 -123 -7z"/>
<path d="M1188 1315 c-81 -44 -15 -123 94 -113 92 9 127 78 58 113 -37 19
-117 19 -152 0z"/>
<path d="M1099 1204 c-9 -11 -9 -18 -1 -26 14 -14 42 -3 42 16 0 20 -27 27
-41 10z"/>
<path d="M870 1154 c-7 -19 -10 -37 -8 -38 16 -13 191 -77 359 -130 243 -78
310 -104 327 -125 12 -15 15 -14 28 3 20 28 18 35 -14 34 -17 -1 -129 47 -278
119 -250 121 -367 173 -390 173 -7 0 -18 -16 -24 -36z"/>
<path d="M1744 1166 c-10 -26 4 -48 28 -44 17 2 23 10 23 28 0 18 -6 26 -23
28 -13 2 -25 -3 -28 -12z"/>
<path d="M1590 1125 c0 -8 7 -15 15 -15 8 0 15 7 15 15 0 8 -7 15 -15 15 -8 0
-15 -7 -15 -15z"/>
</g>
</svg>
