<?xml version="1.0" standalone="no"?>
<!DOCTYPE svg PUBLIC "-//W3C//DTD SVG 20010904//EN"
 "http://www.w3.org/TR/2001/REC-SVG-20010904/DTD/svg10.dtd">
<svg version="1.0" xmlns="http://www.w3.org/2000/svg"
 width="75.000000pt" height="75.000000pt" viewBox="0 0 75.000000 75.000000"
 preserveAspectRatio="xMidYMid meet">

<g transform="translate(0.000000,75.000000) scale(0.100000,-0.100000)"
fill="#000000" stroke="none">
<path d="M259 524 c-11 -14 -11 -18 6 -30 22 -16 39 -5 33 22 -4 24 -22 28
-39 8z"/>
<path d="M187 463 c-12 -12 -7 -41 7 -46 22 -9 41 19 26 38 -14 16 -23 19 -33
8z"/>
<path d="M308 461 c-69 -10 -73 -18 -44 -85 24 -54 25 -60 11 -99 -17 -49 -18
-57 -7 -57 4 0 14 16 21 36 16 45 37 39 34 -10 -2 -26 1 -36 10 -33 6 2 13 22
15 45 2 31 -3 51 -22 79 -37 54 -34 70 12 66 l37 -2 -37 12 c-49 16 -61 31
-20 25 17 -2 32 -1 32 4 0 4 7 8 15 8 8 0 15 5 15 10 0 11 -1 11 -72 1z"/>
<path d="M624 455 c-4 -9 -2 -21 4 -27 15 -15 44 -1 40 19 -4 23 -36 29 -44 8z"/>
<path d="M79 407 c-30 -20 -35 -29 -45 -97 -16 -94 -16 -110 -5 -110 8 0 19
29 28 74 5 26 9 30 24 21 7 -5 9 -23 5 -51 -7 -51 7 -58 23 -13 16 46 14 60
-14 89 -26 27 -23 38 11 57 19 10 23 9 28 -10 3 -12 6 -32 6 -44 0 -13 4 -23
8 -23 5 0 8 29 8 65 -1 59 -3 65 -22 65 -12 0 -36 -10 -55 -23z"/>
<path d="M520 385 c-29 -31 -18 -46 13 -18 37 34 47 18 24 -37 -21 -49 -22
-50 -64 -50 -50 0 -57 -15 -12 -24 57 -11 75 -7 87 20 l12 25 28 -19 c15 -11
36 -29 46 -41 19 -21 46 -28 46 -13 0 4 -18 26 -40 47 -41 40 -47 59 -30 85 9
13 12 13 21 -2 11 -19 79 -26 79 -8 0 6 -11 10 -25 10 -13 0 -35 11 -49 25
-35 35 -103 35 -136 0z"/>
</g>
</svg>
